<svg xmlns="http://www.w3.org/2000/svg" width="1024" height="1024" preserveAspectRatio="xMidYMid meet" version="1.0" viewBox="0 0 768 768"><metadata>Created by potrace 1.14, written by Peter Selinger 2001-2017</metadata><g fill="#000" stroke="none"><path d="M3805 7651 c-40 -24 -475 -269 -550 -311 -33 -18 -64 -36 -70 -40 -5 -4 -39 -23 -75 -43 -36 -19 -192 -107 -348 -195 -155 -89 -296 -167 -312 -174 -17 -7 -30 -16 -30 -20 0 -5 -4 -8 -10 -8 -5 0 -31 -13 -57 -29 -27 -15 -111 -63 -188 -106 -77 -43 -201 -113 -275 -155 -74 -43 -160 -91 -190 -108 -30 -16 -99 -55 -154 -86 -54 -31 -102 -56 -107 -56 -5 0 -9 -4 -9 -10 0 -5 -5 -10 -10 -10 -6 0 -129 -67 -274 -150 -145 -82 -269 -150 -275 -150 -6 0 -11 -3 -11 -7 0 -5 -10 -13 -23 -19 -49 -23 -112 -59 -115 -66 -2 -5 -8 -8 -13 -8 -4 0 -41 -19 -81 -43 -40 -24 -81 -46 -90 -50 -15 -5 -18 -20 -18 -94 0 -48 -1 -909 -1 -1912 0 -1649 1 -1825 16 -1841 8 -9 33 -25 55 -35 22 -10 40 -22 40 -27 0 -4 4 -8 10 -8 5 0 56 -28 112 -61 57 -34 117 -70 133 -79 39 -23 188 -110 228 -134 207 -121 328 -193 357 -211 19 -13 55 -34 80 -47 86 -48 275 -161 293 -176 9 -8 17 -11 17 -7 0 4 8 1 18 -7 13 -11 284 -173 487 -291 11 -6 36 -21 55 -33 19 -12 51 -31 70 -41 19 -10 94 -54 165 -96 72 -43 137 -82 145 -87 8 -4 49 -29 91 -54 42 -25 81 -46 87 -46 6 0 12 -4 14 -8 1 -5 15 -15 30 -23 28 -15 34 -18 328 -192 102 -60 199 -117 215 -127 17 -10 76 -45 133 -79 57 -33 107 -61 112 -61 5 0 10 -6 12 -12 5 -14 49 7 175 80 126 74 436 248 513 288 19 11 37 21 40 25 3 3 21 13 40 22 19 10 58 31 85 48 28 16 61 35 75 42 14 6 27 14 30 17 3 3 14 10 25 16 122 66 341 189 345 193 3 3 23 15 45 27 22 11 114 62 205 114 91 51 176 100 190 107 14 8 57 32 95 54 39 22 78 43 88 46 9 3 17 8 17 12 0 4 16 13 35 21 19 8 35 17 35 22 0 4 4 8 9 8 5 0 69 33 141 74 72 41 140 78 150 81 11 4 20 11 20 16 0 5 4 9 10 9 5 0 48 23 96 50 48 28 89 50 91 50 2 0 37 20 77 45 41 25 79 45 83 45 5 0 15 6 21 12 7 7 16 13 20 13 4 0 41 20 82 45 41 24 89 52 105 60 17 9 84 47 150 85 66 37 145 81 175 98 30 16 59 33 63 37 4 4 8 865 8 1914 0 1449 -3 1911 -12 1922 -6 7 -37 28 -68 46 -31 17 -101 59 -156 91 -55 33 -113 68 -130 77 -148 86 -223 130 -450 265 -104 62 -206 122 -225 133 -123 69 -386 228 -388 234 -2 4 -8 8 -13 8 -9 0 -201 109 -224 127 -6 4 -30 19 -55 32 -25 13 -64 37 -87 53 -23 15 -46 28 -51 28 -5 0 -20 8 -33 18 -13 10 -49 32 -79 48 -30 16 -57 31 -60 34 -3 3 -39 26 -80 50 -41 25 -88 53 -105 63 -16 9 -38 20 -47 23 -10 4 -18 10 -18 15 0 5 -5 9 -11 9 -7 0 -57 27 -113 61 -122 73 -110 66 -221 131 -49 28 -91 55 -93 60 -2 4 -8 8 -14 8 -6 0 -39 18 -74 40 -35 22 -66 40 -69 40 -8 0 -110 63 -116 73 -3 4 -12 9 -20 11 -8 1 -25 9 -39 18 -72 46 -162 98 -170 98 -6 0 -10 4 -10 8 0 5 -16 14 -35 22 -19 8 -35 17 -35 22 0 13 -22 8 -55 -11z m83 -471 c6 0 17 -6 24 -13 7 -7 24 -18 38 -25 14 -7 43 -23 65 -37 22 -14 72 -43 110 -65 39 -23 84 -50 100 -60 17 -10 41 -25 55 -33 44 -24 274 -159 310 -182 19 -12 96 -57 170 -100 74 -43 153 -90 175 -104 22 -14 42 -26 45 -26 3 0 16 -8 30 -17 14 -8 66 -39 115 -68 50 -29 140 -82 200 -118 103 -60 136 -80 196 -114 13 -7 26 -15 29 -18 3 -3 16 -11 30 -19 155 -89 236 -136 240 -141 9 -10 65 -41 83 -47 9 -3 17 -9 17 -14 0 -5 5 -9 11 -9 6 0 56 -27 111 -60 54 -33 103 -60 108 -60 6 0 10 -3 10 -7 0 -5 10 -13 23 -19 42 -20 322 -186 340 -202 9 -8 17 -11 17 -7 0 4 8 1 18 -7 16 -13 41 -29 128 -78 17 -10 41 -24 52 -31 l21 -13 0 -1682 c0 -1308 -2 -1684 -12 -1692 -7 -5 -30 -20 -52 -32 -22 -13 -96 -54 -165 -93 -69 -38 -145 -81 -170 -95 -25 -14 -49 -28 -55 -32 -5 -4 -35 -21 -65 -37 -30 -17 -71 -39 -90 -50 -19 -11 -55 -31 -80 -45 -148 -83 -357 -200 -370 -208 -67 -41 -140 -80 -149 -80 -6 0 -11 -3 -11 -7 0 -5 -10 -13 -23 -19 -12 -5 -143 -79 -291 -162 -147 -84 -272 -152 -277 -152 -5 0 -9 -4 -9 -9 0 -5 -8 -11 -17 -14 -18 -6 -35 -15 -253 -139 -63 -36 -136 -77 -162 -91 -26 -15 -83 -46 -125 -70 -43 -25 -96 -55 -118 -67 -22 -13 -60 -34 -85 -48 -144 -82 -273 -154 -309 -173 -32 -17 -34 -17 -60 -1 -14 10 -35 23 -46 29 -61 35 -254 148 -275 162 -41 26 -64 40 -80 48 -8 4 -81 47 -163 95 -81 48 -152 88 -157 88 -6 0 -10 4 -10 8 0 4 -22 19 -50 33 -27 13 -50 27 -50 32 0 4 -4 7 -9 7 -12 0 -230 127 -253 148 -10 8 -18 11 -18 7 0 -4 -8 -1 -17 7 -16 13 -350 212 -460 274 -21 12 -123 72 -228 134 -104 63 -200 118 -212 124 -13 6 -23 14 -23 19 0 4 -5 7 -10 7 -6 0 -55 27 -109 60 -55 33 -101 60 -104 60 -4 0 -25 13 -49 28 -24 16 -63 40 -88 53 -25 13 -47 27 -50 30 -3 3 -32 20 -65 39 -33 18 -78 45 -100 59 -22 14 -42 26 -45 26 -3 0 -18 9 -35 19 -16 11 -47 30 -67 43 -21 12 -42 23 -48 23 -5 0 -10 3 -10 8 0 4 -13 13 -29 20 l-30 13 0 1687 0 1687 57 30 c31 17 59 32 62 35 5 5 10 8 115 65 39 21 78 45 88 53 9 8 17 12 17 8 0 -4 17 5 37 19 21 14 43 25 50 25 7 0 13 5 13 10 0 6 4 10 9 10 5 0 68 34 140 75 71 41 135 75 141 75 5 0 10 5 10 10 0 6 4 10 10 10 5 0 51 24 102 53 115 66 228 130 248 140 8 4 42 23 75 42 33 20 76 43 95 53 19 9 37 20 40 23 3 3 30 19 60 35 70 39 147 82 185 106 17 10 37 21 45 25 8 3 57 30 108 60 51 29 95 53 98 53 3 0 18 8 32 18 15 11 52 32 82 49 45 24 446 250 580 326 201 114 345 195 389 219 31 16 37 16 51 3 9 -8 22 -15 28 -15z" transform="translate(0.000000,768.000000) scale(0.100000,-0.100000)"/><path d="M2843 5110 c-18 -5 -19 -47 -18 -1267 0 -694 3 -1264 7 -1268 5 -6 370 -10 483 -6 21 1 21 4 20 556 l0 555 25 1 c14 1 30 0 35 -1 6 -1 16 -2 23 -1 14 1 37 1 55 0 6 0 30 0 52 0 77 1 170 2 183 2 14 -1 36 -1 55 -1 6 1 38 -1 70 -2 31 -2 57 0 57 4 0 4 13 3 29 -2 16 -4 32 -6 35 -3 7 7 101 7 113 0 5 -3 15 -2 23 3 8 5 21 5 30 0 9 -5 22 -5 29 0 8 4 27 4 42 0 17 -5 29 -5 29 0 0 5 7 7 15 4 8 -4 36 -7 62 -8 l48 -1 0 -552 c0 -441 2 -553 12 -554 7 0 110 0 228 0 118 0 228 0 243 0 l28 1 -2 1268 c0 697 -2 1269 -3 1272 -1 4 -355 4 -481 1 l-26 -1 1 -482 c1 -266 -1 -490 -3 -500 -4 -15 -46 -16 -502 -16 -364 0 -500 3 -502 12 -2 6 -4 230 -3 499 1 484 1 487 -20 488 -117 3 -458 3 -472 -1z" transform="translate(0.000000,768.000000) scale(0.100000,-0.100000)"/></g></svg>