<svg xmlns="http://www.w3.org/2000/svg" width="1024" height="1024" preserveAspectRatio="xMidYMid meet" version="1.0" viewBox="0 0 768 768"><metadata>Created by potrace 1.14, written by Peter Selinger 2001-2017</metadata><g fill="#000" stroke="none"><path d="M3816 7655 c-8 -8 -21 -15 -30 -15 -8 0 -17 -4 -21 -9 -3 -6 -18 -16 -33 -24 -15 -7 -115 -63 -222 -124 -107 -60 -220 -124 -250 -140 -30 -17 -219 -124 -419 -237 -200 -113 -368 -206 -372 -206 -5 0 -9 -4 -9 -10 0 -5 -9 -10 -20 -10 -11 0 -20 -4 -20 -10 0 -5 -4 -10 -10 -10 -5 0 -31 -13 -57 -28 -81 -49 -148 -86 -153 -87 -3 0 -16 -8 -30 -17 -48 -30 -172 -98 -181 -98 -5 0 -9 -4 -9 -10 0 -5 -5 -10 -10 -10 -6 0 -70 -34 -141 -75 -72 -41 -135 -75 -139 -75 -5 0 -10 -3 -12 -7 -1 -5 -21 -17 -43 -28 -22 -10 -62 -33 -90 -50 -27 -16 -63 -37 -80 -45 -16 -8 -32 -17 -35 -20 -3 -3 -21 -14 -40 -24 -138 -75 -165 -90 -168 -98 -2 -4 -8 -8 -14 -8 -6 0 -62 -29 -125 -65 -62 -36 -132 -76 -156 -89 -23 -13 -67 -38 -97 -56 -30 -17 -67 -36 -82 -43 -16 -6 -28 -15 -28 -19 0 -4 -4 -8 -10 -8 -5 0 -42 -19 -82 -43 -40 -24 -81 -46 -90 -50 -15 -5 -18 -21 -19 -99 -1 -51 -1 -97 0 -101 2 -9 2 -45 0 -67 -1 -26 -1 -394 1 -420 1 -14 1 -31 1 -37 -1 -7 -1 -19 -2 -25 -1 -16 0 -362 1 -483 1 -49 1 -97 1 -105 0 -8 0 -73 0 -145 0 -71 1 -141 0 -155 -2 -182 -3 -464 -1 -490 1 -14 1 -31 1 -37 -1 -7 -1 -19 -2 -25 -1 -25 -1 -393 1 -418 1 -14 1 -31 1 -37 -1 -7 -1 -19 -2 -25 -1 -16 0 -362 1 -483 1 -49 1 -97 1 -105 0 -8 0 -73 0 -145 0 -71 0 -143 0 -160 -3 -196 0 -269 11 -282 6 -8 31 -24 55 -35 24 -11 43 -24 43 -29 0 -5 4 -9 10 -9 5 0 77 -40 160 -90 83 -49 178 -105 213 -125 34 -20 69 -40 77 -45 30 -20 365 -216 380 -223 8 -4 27 -15 42 -25 15 -9 82 -49 150 -89 68 -39 140 -83 160 -97 21 -14 38 -23 38 -19 0 3 8 -1 18 -9 14 -12 77 -50 204 -123 10 -5 64 -37 120 -71 57 -33 114 -67 128 -75 14 -8 27 -16 30 -19 3 -3 19 -13 35 -21 17 -8 55 -30 85 -49 30 -19 57 -35 60 -35 3 0 23 -12 45 -26 22 -14 47 -29 55 -32 8 -4 47 -27 85 -51 39 -25 90 -55 115 -67 25 -12 47 -26 50 -30 3 -4 24 -17 48 -30 49 -27 54 -30 137 -80 33 -20 143 -85 245 -144 102 -59 193 -115 203 -123 9 -8 17 -12 17 -8 0 4 19 -6 43 -22 161 -110 287 -167 287 -131 0 5 7 9 15 9 8 0 47 20 87 43 40 24 150 87 243 139 94 53 195 110 225 127 30 18 66 37 80 44 14 6 27 14 30 18 3 3 19 12 35 21 17 8 47 24 67 36 21 12 115 65 210 118 95 53 186 105 201 116 16 11 36 21 44 22 8 1 18 7 21 12 4 5 31 21 60 36 28 16 76 40 105 55 28 16 56 34 60 41 4 6 17 12 27 12 10 0 22 5 25 10 4 6 32 24 63 40 31 16 80 43 107 59 28 17 64 37 80 45 17 8 53 29 80 45 28 17 66 38 85 48 19 9 37 20 40 23 3 4 20 13 38 21 17 8 32 17 32 21 0 5 4 8 10 8 5 0 94 48 197 106 103 58 217 122 253 142 36 19 72 41 81 48 8 8 19 14 22 14 4 0 25 11 47 25 22 14 46 25 54 25 8 0 16 4 18 8 2 4 23 19 48 33 50 28 47 27 180 102 101 58 158 90 255 143 l60 33 2 98 c1 54 2 139 2 188 1 108 1 121 2 138 1 11 1 126 -2 412 0 72 -1 141 0 155 2 160 3 464 1 490 -1 14 -1 31 -1 38 1 6 1 18 2 25 1 24 1 392 -1 417 -1 14 -1 31 -1 38 1 6 1 18 2 25 1 15 0 361 -1 482 -1 50 -1 97 -1 105 0 8 0 74 0 145 0 72 0 144 0 160 0 17 0 89 0 160 0 72 0 144 0 160 0 17 0 89 0 160 0 72 0 144 0 160 4 278 2 294 -52 311 -11 4 -25 11 -31 16 -10 8 -275 166 -411 244 -33 19 -67 39 -75 44 -34 22 -366 217 -380 223 -8 4 -27 15 -42 25 -15 9 -80 48 -144 85 -64 38 -135 80 -158 95 -22 14 -43 27 -46 27 -3 0 -16 8 -30 16 -76 48 -182 109 -190 109 -6 0 -10 3 -10 8 0 4 -23 18 -50 31 -28 14 -50 29 -50 33 0 4 -5 8 -10 8 -6 0 -41 19 -78 41 -37 23 -88 54 -114 68 -26 14 -118 68 -205 120 -87 52 -168 99 -180 105 -13 6 -23 14 -23 19 0 4 -5 7 -11 7 -9 0 -106 55 -229 130 -8 5 -78 46 -155 91 -77 45 -141 85 -143 90 -2 5 -12 9 -23 9 -10 0 -19 4 -19 9 0 5 -8 11 -17 15 -20 7 -105 56 -113 65 -3 3 -18 13 -35 21 -16 8 -65 36 -107 63 -43 26 -82 47 -87 47 -5 0 -11 3 -13 8 -3 7 -81 52 -91 52 -3 0 -12 -7 -21 -15z" transform="translate(0.000000,768.000000) scale(0.100000,-0.100000)"/></g></svg>