<svg xmlns="http://www.w3.org/2000/svg" xmlns:xlink="http://www.w3.org/1999/xlink" id="e07c9319-842b-449a-9f57-029d5804b779" x="0" y="0" version="1.1" viewBox="0 0 1168.8 684.5" xml:space="preserve" style="enable-background:new 0 0 1168.8 684.5"><style type="text/css">.st0{fill:#ff6584}.st1{fill:#f8faff}.st2{fill:#3f3d56}.st3{opacity:.1;enable-background:new}.st4{fill:#f36}.st5{fill:#f9f330}.st6{fill:#5ac05a}.st7{fill:#fff}.st8{fill:#e7005b}.st9{fill:#536dfe}.st10{fill:#2858e3}.st11{fill:#3acc6c}.st12{fill:#ffb9b9}.st13{fill:#2f2e41}</style><title>portfolio_website</title><path d="M1040.8,256c-70.7,0-128-57.3-128-128s57.3-128,128-128s128,57.3,128,128C1168.7,198.7,1111.4,255.9,1040.8,256	z M1040.8,2c-69.6,0-126,56.4-126,126s56.4,126,126,126s126-56.4,126-126C1166.7,58.4,1110.3,2.1,1040.8,2z" class="st0"/><circle cx="1041.2" cy="128.4" r="64.3" class="st1"/><rect width="981.2" height="492.9" x="64.2" y="128.5" class="st2"/><rect width="367.9" height="252.3" x="339.9" y="271" class="st3"/><circle cx="1129.1" cy="38" r="25.9" class="st0"/><circle cx="93.4" cy="157.2" r="11.7" class="st4"/><circle cx="129.7" cy="157.2" r="11.7" class="st5"/><circle cx="165.9" cy="157.2" r="11.7" class="st6"/><rect width="23.4" height="23.4" x="177.5" y="311.9" class="st7"/><rect width="23.4" height="23.4" x="888.9" y="515.1" class="st8"/><rect width="23.4" height="23.4" x="816.5" y="357.5" class="st9" transform="matrix(0.7774 -0.629 0.629 0.7774 -47.842 603.0881)"/><polygon points="747.6 670.5 14 670.5 14 275.7 16.4 275.7 16.4 668.2 747.6 668.2" class="st2"/><path d="M761.6,684.5c-8.4,0-15.2-6.8-15.2-15.2s6.8-15.2,15.2-15.2c8.4,0,15.2,6.8,15.2,15.2l0,0	C776.8,677.7,770,684.5,761.6,684.5z M761.6,656.5c-7.1,0-12.8,5.8-12.8,12.8c0,7.1,5.8,12.8,12.8,12.8c7.1,0,12.8-5.8,12.8-12.8	C774.4,662.2,768.7,656.5,761.6,656.5L761.6,656.5z" class="st4"/><path d="M15.2,276.9c-8.4,0-15.2-6.8-15.2-15.2c0-8.4,6.8-15.2,15.2-15.2s15.2,6.8,15.2,15.2l0,0	C30.4,270.1,23.6,276.9,15.2,276.9z M15.2,248.8c-7.1,0-12.8,5.8-12.8,12.8c0,7.1,5.8,12.8,12.8,12.8S28,268.8,28,261.7l0,0	C28,254.6,22.3,248.8,15.2,248.8z" class="st10"/><path d="M234.8,592.2l-10.4,29.2h-23.4v-29.8c1.7-37.4,22.7-54.9,23.3-55.5c-15.8,15.2-14,67.7-14,67.7	c10.5-45.6,19.9-46.7,19.9-46.7c-5.7,8.5-8.6,47.1-8.7,49.5C222.1,598.6,234.8,592.2,234.8,592.2z" class="st11"/><path d="M960.2,596.2v25.2h-18l-8.8-24.8c0,0,10.1,5,10.6,11.5c-0.1-2-2.5-32.5-6.9-39.3c0,0,7.4,0.9,15.8,37.1	c0,0,1.4-41.7-11.1-53.7C942.2,552.6,958.8,566.6,960.2,596.2z" class="st11"/><path d="M644.7,523.3h-28.4l-0.2-2.3l-2.1-26v0l-2.2-27l13.1-55.7l11.1,11.1v53.1c0,0,6.5,9.8,5.2,12.5	s-2.6,2.6-1.3,4.6c1.3,2,2.6,3.3,1.3,4.6c-1.3,1.7-1.3,4.2,0,5.9c1.3,1.3,3.9,3.3,2,5.2c-2,2-4.6,0.7-2,7.9c0.5,1.3,1.1,2.6,1.8,3.8	C643.7,521.8,644.2,522.6,644.7,523.3z" class="st0"/><polygon points="557.2 343.8 553.3 383.2 593.2 389.1 596.2 366.5 599.1 343.8" class="st12"/><polygon points="557.2 343.8 553.3 383.2 593.2 389.1 596.2 366.5 599.1 343.8" class="st3"/><circle cx="579.1" cy="325.2" r="31.4" class="st12"/><path d="M499.7,523.3c-0.1-0.2-0.2-0.5-0.3-0.7c-0.2-0.5-0.5-1-0.8-1.6c-1.7-3.9-3.9-9.4-2.6-11c2-2.6,2.6-5.2,1.3-6.5	s-5.2,1.3-1.3-2c3.9-3.3,5.2-1.3,3.9-5.2s-3.9-2-1.3-3.9c2.6-2,4.6-1.3,3.3-3.3c-1.3-2-3.9-2-1.3-3.3s4.6,0,3.9-3.3	c-0.7-3.3-1.3-2,0-3.3c0.3-0.3,1.5-3.6,3.1-8.3c4.5-13.3,12-37.9,12-38.8c0-1.3-10.5-42.6-10.5-42.6l-4.6-2.6	c0,0-20.3,13.8-26.9,44.6c-6.6,30.8-11.1,38.7-11.1,38.7s-6.5,1.3-2,5.9c4.6,4.6,4.6,3.9,0.7,6.5s-6.5-2.6-3.9,2.6	c2.6,5.3,5.9,3.9,3.3,7.2c-2.6,3.3-7.2,3.3-4.6,5.9s-2.6,8.5,0.6,11.1c3.3,2.6,4.6,3.3,4.6,7.9c0,1.3,0.1,2.6,0.3,3.8	c0.1,0.8,0.3,1.6,0.5,2.3c0.1,0.6,0.3,1.1,0.4,1.4L499.7,523.3z" class="st0"/><polygon points="499.7 523.3 502.3 523.3 502.5 522.4 499.3 522.6 487.8 523.3 466.3 524.7" class="st2"/><path d="M513.6,495.5l-5.9-20.3l-0.2-4.4l-3.1-84l38.7-13.8l6.6-5.3c0,0,1.3-15.1,3.3-16.4c0.7-0.5,1.8,0.1,3.4,1.4	c2.7,2.3,6.5,6.7,11,11.8c7.2,7.9,22.3,6.5,26.9,3.9c0.6-0.3,1.2-0.6,1.8-0.9c3.3-1.4,4.7-0.4,4.7-0.4c3.3,2.6-4.6,11.1-4.6,11.1	s2.6,5.9,19.7,11.8c17,5.9,20.3,33.4,20.3,33.4s-20.3,55-19.7,59c0.6,3.4-1.8,10.6-2.4,12.6v0c-0.1,0.3-0.2,0.5-0.2,0.5l1.5,25.5	l0.1,2.3h-99.1c-0.3-0.8-0.7-1.6-1.1-2.3c-0.1-0.2-0.2-0.4-0.3-0.6C509,511.2,513.6,495.5,513.6,495.5z" class="st0"/><path d="M547.5,329.2c0,0-3.3-4.9-2-10.2c0.8-3,1-6.1,0.9-9.2c0,0,2.6-8.5,5.3-13.3s1.4-6.8,9.7-8.3s4.9-12.3,26.8-0.6	c1.5,2.1,4.1,3.1,6.7,2.5c4.5-0.9,6.2,5.4,6.2,5.4s3-1.8,4.1,0.8s9.2-1.5,9.2,15.4s-9.2,32.1-9.2,32.1s0.7-28.5-14.3-31.4	s-31-11.3-34.9-0.5C553.7,318,550.9,323.8,547.5,329.2z" class="st13"/><ellipse cx="605.3" cy="332.1" class="st12" rx="2.9" ry="3.9"/><path d="M339.9,252.3v271h429.9v-271H339.9z M767.4,521H342.2V254.7h425.2V521z" class="st7"/></svg>